# xmcd
#
# Track frame offsets: 
#        183
#        16758
#        63833
#        109808
#
# Disc length: 1805 seconds
#
# Revision: 1
# Processed by: cddbd v1.5.2PL0 Copyright (c) Steve Scherf et al.
# Submitted via: ExactAudioCopy v1.0b6
#
DISCID=26070b04
DTITLE=A Homeboy, A Hippie and A Funki Dredd - Temple Of Love
DYEAR=1992
DGENRE=Techno
TTITLE0=Temple Of Love (Speak Mix Edit)
TTITLE1=Temple Of Love (Sound Clash System Remix)
TTITLE2=Temple Of Love (No Speak Mix)
TTITLE3=Temple Of Love (Sound Clash System Edit)
EXTD=
EXTT0=
EXTT1=
EXTT2=
EXTT3=
PLAYORDER=
